<svg aria-hidden="true" style="position: absolute; width: 0; height: 0; overflow: hidden;" version="1.1" xmlns="http://www.w3.org/2000/svg" xmlns:xlink="http://www.w3.org/1999/xlink">
<defs>
<symbol id="icon-burger" viewBox="0 0 52 32">
<path d="M0 0h52.364v8.727h-52.364v-8.727z"></path>
<path d="M14.545 23.273h37.818v8.727h-37.818v-8.727z"></path>
</symbol>
<symbol id="icon-cbre" viewBox="0 0 130 32">
<path d="M58.884 15.478c4.094-1.351 4.836-4.767 4.827-7.55-0.008-4.249-3.026-7.925-11.959-7.925l-16.674-0.003v31.934h16.631c8.987 0 12.293-4.586 12.293-9.18 0-5.563-5.118-7.276-5.118-7.276zM42.99 6.947l11.267 0.008c1.267 0.223 2.19 1.294 2.19 2.551 0 1.286-0.989 2.496-2.295 2.673l-11.154 0.017-0.008-5.249zM53.676 24.492h-10.686v-5.347l10.973 0.003c1.362 0.156 2.394 1.282 2.394 2.619 0 1.457-1.221 2.702-2.681 2.725z"></path>
<path d="M101.339 0.004h28.177l-0.016 6.97h-20.332l0.019 5.147h18.33v7.006h-18.33v5.57h20.335l-0.004 7.303h-28.18v-31.996z"></path>
<path d="M84.95 0.046h-17.039v31.944h7.825v-12.924c0 0 8.616-0.010 8.617-0.010 2.468 0.038 4.387 2.047 4.387 4.525v8.381l7.659-0.003-0.015-10.31c0-4.776-4.641-6.187-4.641-6.187s4.745-1.412 4.745-7.058c0-6.908-5.973-8.359-11.537-8.359zM89.221 9.957c-0.141 1.050-1.197 2.189-2.516 2.189l-10.997 0.004v-5.115h11.002c1.313 0 2.343 0.962 2.51 2.225v0.697z"></path>
<path d="M30.003 24.271c-0.113 0.003-10.696 0.206-14.349-0.148-5.885-0.573-7.969-4.906-7.969-8.442 0-4.409 3.024-7.654 7.709-8.264 2.229-0.29 14.416-0.153 14.545-0.152l0.256 0.003 0.026-7.264-0.259 0.001-13.794 0.025c-1.536 0.093-4.082 0.247-6.689 1.307-2.504 1.141-4.684 2.892-6.312 5.072-2.071 2.775-3.168 6.067-3.168 9.521 0 1.086 0.086 2.165 0.263 3.199 0.993 4.843 4.187 8.851 8.767 11.007 1.547 0.676 3.932 1.488 8.742 1.756 0.010 0 2.591 0.054 2.591 0.054l9.87 0.010 0.027-7.688-0.257 0.003z"></path>
</symbol>
<symbol id="icon-drible" viewBox="0 0 32 32">
<path d="M16 32c-8.822 0-16-7.178-16-16s7.178-16 16-16c8.822 0 16 7.178 16 16s-7.178 16-16 16zM29.494 18.19c-0.468-0.148-4.23-1.27-8.513-0.584 1.788 4.912 2.515 8.913 2.655 9.744 3.066-2.073 5.249-5.357 5.858-9.16zM21.338 28.601c-0.203-1.199-0.997-5.378-2.916-10.364-0.030 0.010-0.060 0.020-0.090 0.030-7.708 2.686-10.476 8.032-10.721 8.535 1.92 1.497 4.205 2.453 6.618 2.769s4.868-0.019 7.109-0.971zM5.847 25.159c0.31-0.53 4.060-6.74 11.109-9.019 0.178-0.058 0.358-0.112 0.538-0.162-0.343-0.776-0.717-1.554-1.108-2.319-6.825 2.043-13.448 1.957-14.046 1.945-0.004 0.139-0.007 0.278-0.007 0.418-0.003 3.376 1.25 6.633 3.513 9.138zM2.622 13.222c0.611 0.008 6.242 0.033 12.634-1.665-2.264-4.025-4.707-7.41-5.067-7.904-3.823 1.803-6.681 5.328-7.568 9.569zM12.797 2.734c0.378 0.506 2.86 3.886 5.099 8 4.86-1.821 6.917-4.587 7.163-4.937-1.645-1.461-3.62-2.503-5.755-3.037s-4.368-0.543-6.507-0.027zM26.579 7.378c-0.288 0.39-2.578 3.326-7.631 5.389 0.318 0.651 0.623 1.313 0.907 1.98 0.1 0.236 0.199 0.471 0.294 0.705 4.547-0.572 9.066 0.345 9.516 0.44-0.026-3.107-1.115-6.111-3.086-8.513z"></path>
</symbol>
<symbol id="icon-emm" viewBox="0 0 64 32">
<path d="M44.576 10.459c0.235 0 0.466-0.015 0.693-0.045l8.852 12.876c-0.825 0.924-1.327 2.144-1.327 3.481 0 2.888 2.341 5.23 5.23 5.23s5.23-2.341 5.23-5.23c0-2.888-2.341-5.23-5.23-5.23-0.674 0-1.319 0.128-1.911 0.36l-8.498-12.415c1.326-0.949 2.191-2.502 2.191-4.257 0-2.888-2.341-5.23-5.23-5.23s-5.23 2.341-5.23 5.23c0 1.822 0.932 3.427 2.346 4.363l-8.42 12.212c-0.517-0.171-1.071-0.264-1.646-0.264-0.5 0-0.983 0.070-1.441 0.201l-8.376-12.149c1.414-0.936 2.346-2.541 2.346-4.363 0-2.888-2.341-5.23-5.23-5.23s-5.23 2.341-5.23 5.23c0 1.748 0.857 3.295 2.174 4.245l-8.613 12.474c-0.624-0.263-1.309-0.408-2.028-0.408-2.888 0-5.23 2.341-5.23 5.23s2.341 5.23 5.23 5.23 5.23-2.341 5.23-5.23c0-1.261-0.446-2.417-1.189-3.32l8.963-13.037c0.227 0.030 0.458 0.045 0.692 0.045 0.157 0 0.312-0.007 0.466-0.020l8.671 12.504c-1.025 0.955-1.666 2.316-1.666 3.827 0 2.888 2.341 5.23 5.23 5.23s5.23-2.341 5.23-5.23c0-1.437-0.579-2.738-1.517-3.683l8.771-12.649c0.153 0.014 0.309 0.020 0.466 0.020z"></path>
</symbol>
<symbol id="icon-epiq" viewBox="0 0 78 32">
<path d="M21.531 15.557c-1.528 4.65-5.266 7.27-10.319 7.27-6.285 0-11.212-4.987-11.212-11.371 0-6.298 4.926-11.456 10.999-11.456 5.648 0 11.084 4.65 11.042 12.385h-18.389c0.467 4.524 3.949 7.187 7.559 7.187 3.1 0 5.308-1.48 6.498-4.016h3.822zM18.049 9.173c-0.892-3.551-3.865-5.918-7.050-5.918-3.015 0-6.2 2.199-7.134 5.918h14.184zM34.739 22.827c-3.143 0-5.861-1.691-7.432-3.804v12.977h-3.61v-31.45h3.482v3.466c1.529-2.197 4.331-4.016 7.559-4.016 6.285 0 10.914 5.115 10.914 11.372 0 6.341-4.629 11.455-10.914 11.455zM34.739 3.298c-4.035 0-7.432 3.636-7.432 8.074 0 4.48 3.397 8.158 7.432 8.158 4.077 0 7.304-3.678 7.304-8.158 0-4.438-3.228-8.074-7.304-8.074zM47.224 0.55h3.61v21.77h-3.61v-21.77zM52.446 11.469c0-6.353 5.18-11.462 11.739-11.462s11.74 5.11 11.74 11.462c0 6.353-5.229 11.369-11.74 11.369s-11.739-5.017-11.739-11.37zM65.176 3.475c-5.976-0.52-9.299 4.008-9.299 9.284 0 5.275 4.368 9.552 9.754 9.552 2.016 0.004 3.985-0.61 5.639-1.758l-1.352-3.427c1.397-1.449 2.204-3.451 2.204-5.663 0-4.372-3.067-7.627-6.946-7.99z"></path>
<path d="M62.029 13.657l10.65 8.625h5.666l-10.375-8.625z"></path>
</symbol>
<symbol id="icon-kubik" viewBox="0 0 26 32">
<path d="M24.12 23.111v7.111h-9.932v-7.111h9.932zM24.12 1.778v14.222h-9.932v-14.222h9.932zM8.513 16h-7.094v14.222h7.094v-14.222zM8.513 1.778v7.111h-7.094v-7.111h7.094zM14.188 0c-0.784 0-1.419 0.796-1.419 1.778v14.222c0 0.982 0.635 1.778 1.419 1.778h9.932c0.784 0 1.419-0.796 1.419-1.778v-14.222c0-0.982-0.635-1.778-1.419-1.778h-9.932zM14.188 21.333c-0.784 0-1.419 0.796-1.419 1.778v7.111c0 0.982 0.635 1.778 1.419 1.778h9.932c0.784 0 1.419-0.796 1.419-1.778v-7.111c0-0.982-0.635-1.778-1.419-1.778h-9.932zM0 16c0-0.982 0.635-1.778 1.419-1.778h7.094c0.784 0 1.419 0.796 1.419 1.778v14.222c0 0.982-0.635 1.778-1.419 1.778h-7.094c-0.784 0-1.419-0.796-1.419-1.778v-14.222zM1.419 0c-0.784 0-1.419 0.796-1.419 1.778v7.111c0 0.982 0.635 1.778 1.419 1.778h7.094c0.784 0 1.419-0.796 1.419-1.778v-7.111c0-0.982-0.635-1.778-1.419-1.778h-7.094z"></path>
</symbol>
<symbol id="icon-leave" viewBox="0 0 32 32">
<path d="M29.696 0h-14.231c-8.541 0-15.465 5.947-15.465 14.488v10.040c6.234-12.744 21.387-21.699 29.696-24.528z"></path>
<path d="M1.525 32h12.612c8.541 0 15.465-6.924 15.465-15.465v-15.796c-13.167 7.311-22.177 18.691-28.077 31.261z"></path>
</symbol>
<symbol id="icon-linkedin" viewBox="0 0 32 32">
<path d="M29.6 0h-27.2c-1.28 0-2.4 0.965-2.4 2.251v27.498c0 1.286 1.12 2.251 2.4 2.251h27.2c1.28 0 2.4-0.965 2.4-2.251v-27.498c0-1.126-1.12-2.251-2.4-2.251zM9.44 27.497h-4.8v-15.276h4.8v15.276zM7.040 9.97c-1.6 0-2.72-1.286-2.72-2.734s1.28-2.734 2.72-2.734c1.44 0 2.72 1.286 2.72 2.734 0.16 1.608-1.12 2.734-2.72 2.734zM27.2 27.497h-4.8v-7.397c0-1.769 0-4.020-2.4-4.020s-2.88 1.93-2.88 4.020v7.558h-4.8v-15.276h4.48v2.091c0.64-1.286 2.24-2.412 4.48-2.412 4.8 0 5.76 3.216 5.76 7.236v8.201h0.16z"></path>
</symbol>
<symbol id="icon-pen" viewBox="0 0 32 32">
<path d="M17.221 1.2l13.578 13.578 1.2-1.2-13.578-13.578-1.2 1.2z"></path>
<path d="M19.234 7.601c-0.736-0.736-1.846-0.95-2.803-0.54l-9.423 4.039c-1.113 0.477-1.971 1.406-2.352 2.56-0.893 2.708-2.048 6.287-2.981 9.346-0.466 1.529-0.879 2.934-1.175 4.039-0.148 0.552-0.27 1.036-0.355 1.427-0.079 0.364-0.144 0.723-0.144 0.981v0.352l2.194 2.194h0.352c0.259 0 0.617-0.065 0.981-0.144 0.391-0.085 0.875-0.206 1.427-0.355 1.105-0.297 2.51-0.709 4.039-1.175 3.059-0.933 6.638-2.088 9.346-2.981 1.154-0.381 2.082-1.239 2.56-2.352l4.039-9.423c0.41-0.957 0.196-2.067-0.54-2.803l-5.164-5.164zM17.099 8.622c0.319-0.137 0.689-0.065 0.934 0.18l5.164 5.164c0.245 0.245 0.317 0.615 0.18 0.934l-4.039 9.424c-0.287 0.669-0.843 1.181-1.531 1.408-2.702 0.891-6.268 2.042-9.31 2.97-1.522 0.464-2.906 0.87-3.984 1.16-0.539 0.145-0.994 0.259-1.347 0.335-0.075 0.016-0.143 0.030-0.207 0.043l8.671-8.671c0.946 0.452 2.114 0.286 2.898-0.498 0.994-0.994 0.994-2.606 0-3.6s-2.606-0.994-3.6 0c-0.784 0.784-0.95 1.952-0.498 2.898l-8.672 8.672c0.012-0.063 0.027-0.132 0.043-0.207 0.077-0.353 0.19-0.808 0.335-1.347 0.289-1.078 0.696-2.462 1.16-3.984 0.928-3.042 2.079-6.608 2.97-9.31 0.227-0.688 0.739-1.244 1.408-1.531l9.424-4.039z"></path>
</symbol>
<symbol id="icon-pi" viewBox="0 0 32 32">
<path d="M30.601 0h-30.219c-0.090 0-0.176 0.032-0.245 0.089s-0.115 0.137-0.131 0.225c-0.016 0.088 0 0.179 0.045 0.257s0.115 0.137 0.199 0.168l27.333 8.949c0.031 0.010 0.065 0.009 0.096-0.003s0.056-0.035 0.071-0.064l4.079-7.566c0.114-0.212 0.172-0.451 0.167-0.692s-0.073-0.477-0.197-0.684c-0.124-0.207-0.299-0.379-0.509-0.498s-0.447-0.182-0.688-0.182z"></path>
<path d="M0.007 31.633c0 0.082 0.027 0.162 0.078 0.227s0.121 0.111 0.201 0.131 0.164 0.013 0.239-0.020c0.075-0.033 0.137-0.090 0.176-0.163l5.258-9.74c0.119-0.221 0.297-0.406 0.513-0.535s0.463-0.197 0.714-0.197h13.414c0.252 0 0.498-0.068 0.715-0.197s0.393-0.314 0.513-0.535l4.008-7.432c0.009-0.017 0.014-0.036 0.013-0.055s-0.006-0.038-0.016-0.055c-0.010-0.016-0.024-0.030-0.040-0.040s-0.036-0.014-0.055-0.014h-24.335c-0.37 0-0.724 0.147-0.986 0.408s-0.408 0.616-0.408 0.986v17.23z"></path>
</symbol>
<symbol id="icon-placemom" viewBox="0 0 197 32">
<path d="M10.194 11.141c0-0.422-0.143-0.786-0.43-1.092-0.287-0.305-0.643-0.459-1.067-0.459-1.338 0-2.729 1.425-4.173 4.274-1.337 2.575-2.007 4.621-2.007 6.14 0 1.372 0.467 2.058 1.401 2.058 1.316 0 2.633-1.33 3.95-3.988 0.892-1.815 1.594-3.735 2.103-5.76 0.148-0.591 0.223-0.981 0.223-1.171zM14.048 19.117v0.064c-0.021 0.042-0.032 0.074-0.032 0.094-0.445 1.076-1.030 1.994-1.752 2.754-0.913 0.929-1.869 1.393-2.867 1.393-1.147 0-1.72-0.685-1.72-2.057 0-0.358 0.031-0.707 0.095-1.045-1.422 2.068-2.972 3.102-4.651 3.102-0.998 0-1.783-0.39-2.357-1.171-0.509-0.676-0.764-1.53-0.764-2.564 0-2.11 0.924-4.441 2.771-6.995 1.975-2.701 3.982-4.051 6.021-4.051 0.871 0 1.603 0.38 2.198 1.14 0.169-0.633 0.51-0.95 1.020-0.95 0.977 0 1.465 0.17 1.465 0.507 0 0.064-0.244 0.823-0.733 2.278-1.891 5.634-2.835 8.874-2.835 9.718 0 0.401 0.148 0.601 0.446 0.601 0.594 0 1.279-0.538 2.054-1.614s1.173-1.614 1.195-1.614c0.297 0 0.446 0.138 0.446 0.412z"></path>
<path d="M30.23 6.456c0-1.772-0.43-3.043-1.289-3.813-0.861-0.77-2.162-1.145-3.903-1.124-1.359 0-2.039 0.296-2.039 0.886v9.020c0.786 0.127 1.359 0.19 1.72 0.19 3.695-0.020 5.532-1.74 5.511-5.159zM33.989 6.456c0 4.221-2.879 6.33-8.633 6.33-0.744 0-1.529-0.041-2.357-0.126v5.634c0 1.983 0.351 3.123 1.051 3.419 0.042 0.021 0.499 0.158 1.37 0.412 0.509 0.126 0.753 0.296 0.733 0.506-0.021 0.254-0.192 0.38-0.51 0.38h-8.664c-0.318 0-0.488-0.126-0.509-0.38-0.021-0.21 0.223-0.379 0.733-0.506 0.87-0.254 1.327-0.391 1.37-0.412 0.701-0.296 1.051-1.435 1.051-3.419v-12.977c0-1.984-0.35-3.123-1.051-3.419-0.043-0.021-0.499-0.159-1.37-0.412-0.51-0.126-0.754-0.295-0.733-0.507 0.021-0.254 0.191-0.379 0.509-0.379h9.334c2.209 0 3.992 0.454 5.351 1.361 1.55 1.012 2.326 2.511 2.326 4.494z"></path>
<path d="M41.876 22.631c-0.022 0.254-0.192 0.38-0.51 0.38h-6.88c-0.319 0-0.489-0.126-0.51-0.38-0.021-0.168 0.223-0.317 0.733-0.443 0.658-0.147 1.115-0.305 1.37-0.474s0.393-0.633 0.414-1.393v-16.617c0-0.569-0.053-0.944-0.16-1.124s-0.425-0.269-0.955-0.269c-0.808 0-1.211-0.127-1.211-0.38 0-0.274 0.255-0.464 0.764-0.57 1.232-0.254 2.442-0.601 3.632-1.044 0.148-0.043 0.266-0.064 0.35-0.064 0.212 0 0.34 0.122 0.382 0.364s0.064 0.755 0.064 1.535v16.142c0 2.132 0.138 3.271 0.414 3.419 0.149 0.085 0.606 0.221 1.37 0.412 0.51 0.148 0.753 0.316 0.733 0.506z"></path>
<path d="M51.273 18.784v-3.528c-1.572 0.294-2.75 0.651-3.535 1.071-1.274 0.715-1.911 1.701-1.911 2.961 0 0.672 0.196 1.213 0.589 1.622s0.929 0.614 1.609 0.614c0.849 0 1.603-0.263 2.262-0.787s0.987-1.176 0.987-1.953zM57.102 20.827c-0.573 1.625-1.571 2.437-2.994 2.437-1.529 0-2.464-0.769-2.803-2.311-1.615 1.541-3.25 2.311-4.906 2.311-1.062 0-1.901-0.305-2.516-0.915s-0.924-1.442-0.924-2.495c0-1.916 1.040-3.347 3.122-4.295 1.189-0.526 2.92-0.937 5.192-1.231 0.064-2-0.096-3.294-0.478-3.884-0.318-0.526-1.040-0.778-2.166-0.758-0.935 0.021-1.551 0.317-1.848 0.887-0.148 0.527-0.297 1.055-0.445 1.582-0.212 0.57-0.669 0.855-1.37 0.855-0.935 0-1.401-0.401-1.401-1.203 0-1.033 0.647-1.835 1.942-2.405 0.998-0.422 2.124-0.633 3.377-0.633 3.441 0.021 5.161 1.2 5.161 3.537v7.798c0 1.137 0.318 1.695 0.955 1.673 0.425 0 0.78-0.226 1.067-0.68 0.287-0.453 0.494-0.68 0.622-0.68 0.127 0 0.239 0.047 0.334 0.142s0.122 0.185 0.079 0.269z"></path>
<path d="M69.601 20.838c-1.381 1.787-3.079 2.679-5.096 2.679-2.103 0-3.78-0.665-5.033-1.998-1.253-1.332-1.879-3.066-1.879-5.202s0.696-3.933 2.087-5.392c1.39-1.458 3.158-2.178 5.303-2.157 0.977 0 1.933 0.211 2.868 0.633 1.168 0.528 1.751 1.223 1.751 2.089 0 0.822-0.425 1.234-1.274 1.234-0.51 0-0.908-0.242-1.195-0.728s-0.557-0.97-0.812-1.456c-0.382-0.506-0.914-0.759-1.593-0.759-1.402 0-2.463 0.677-3.185 2.030-0.552 1.080-0.828 2.391-0.828 3.935 0 1.692 0.339 3.121 1.020 4.284 0.807 1.439 1.985 2.158 3.535 2.158 0.892 0 1.742-0.32 2.548-0.96 0.169-0.15 0.69-0.694 1.561-1.633 0.106-0.107 0.202-0.16 0.286-0.16 0.192 0 0.287 0.16 0.287 0.478s-0.117 0.628-0.351 0.926z"></path>
<path d="M81.094 13.511c-0.128-2.508-1.136-3.751-3.026-3.731-2.038 0.021-3.26 1.477-3.664 4.368h3.982c1.827 0 2.729-0.213 2.708-0.638zM84.12 14.844c0 0.233-0.117 0.37-0.351 0.412h-9.492c-0.021 0.296-0.032 0.518-0.032 0.665 0 1.731 0.318 3.133 0.955 4.21 0.807 1.329 2.017 1.994 3.632 1.994 1.061 0 1.964-0.232 2.707-0.696 0.382-0.254 0.944-0.77 1.688-1.551 0.084-0.084 0.18-0.126 0.286-0.126 0.276 0 0.415 0.126 0.415 0.38 0 0.084-0.032 0.179-0.096 0.284-1.211 2.047-3.122 3.060-5.734 3.039-2.082-0.022-3.759-0.691-5.033-2.010s-1.911-3.002-1.911-5.049c0-2.11 0.626-3.893 1.879-5.349 1.338-1.54 3.048-2.3 5.129-2.278 1.592 0 2.92 0.474 3.982 1.424 1.295 1.139 1.953 2.69 1.975 4.652z"></path>
<path d="M102.787 2.058c0 0.316-0.111 0.596-0.335 0.839s-0.494 0.364-0.813 0.364c-0.509 0-0.913-0.369-1.21-1.108s-0.69-1.108-1.178-1.108c-1.105 0-1.976 0.646-2.613 1.938-0.233 0.445-0.605 1.557-1.115 3.337l-0.859 2.987h3.153c0.276 0 0.415 0.131 0.415 0.391 0 0.435-0.234 0.653-0.702 0.653h-3.12l-3.186 11.929c-0.744 2.777-1.476 4.829-2.198 6.154-1.318 2.377-2.963 3.566-4.939 3.566-0.743 0-1.401-0.211-1.975-0.633s-0.86-0.982-0.86-1.678c0-0.949 0.43-1.424 1.289-1.424 0.588 0 0.955 0.232 1.101 0.696 0.042 0.168 0.063 0.622 0.063 1.361 0 0.485 0.224 0.728 0.671 0.728 0.896 0 1.685-0.801 2.367-2.402 0.299-0.695 0.672-1.886 1.119-3.571l3.903-14.727h-3.313c-0.191 0-0.287-0.12-0.287-0.359 0-0.457 0.202-0.685 0.606-0.685h3.185c0.848-2.722 1.677-4.716 2.483-5.982 1.381-2.216 3.090-3.324 5.129-3.324 0.744 0 1.433 0.159 2.070 0.474 0.765 0.38 1.147 0.908 1.147 1.583z"></path>
<path d="M105.847 12.186c0-1.731-0.584-2.596-1.752-2.596-1.338 0-2.57 1.404-3.694 4.21-0.957 2.385-1.434 4.379-1.434 5.982 0 1.836 0.626 2.754 1.88 2.754 1.316 0 2.527-1.424 3.631-4.273 0.913-2.405 1.37-4.431 1.37-6.077zM108.172 13.864c0 2.195-0.657 4.273-1.975 6.235-1.486 2.215-3.281 3.324-5.384 3.324-1.38 0-2.442-0.549-3.185-1.647-0.68-0.949-1.020-2.13-1.020-3.545 0-2.173 0.669-4.261 2.007-6.266 1.508-2.237 3.302-3.355 5.383-3.355 1.381 0 2.442 0.549 3.186 1.645 0.658 0.972 0.987 2.174 0.987 3.609z"></path>
<path d="M121.071 10.35c0 0.38-0.111 0.728-0.335 1.045-0.222 0.316-0.515 0.474-0.876 0.474s-0.637-0.221-0.828-0.665c-0.192-0.443-0.446-0.665-0.764-0.665-1.169 0-3.080 4.157-5.734 12.47h-2.485c0.637-2.131 1.274-4.273 1.911-6.425 0.998-3.397 1.497-5.307 1.497-5.729 0-0.358-0.159-0.538-0.477-0.538-0.573 0-1.115 0.348-1.625 1.045-0.169 0.212-0.509 0.791-1.018 1.741-0.128 0.253-0.308 0.38-0.542 0.38-0.319 0-0.478-0.127-0.478-0.38l0.031-0.127c0.276-1.054 0.818-2.014 1.625-2.88 0.912-0.95 1.879-1.424 2.898-1.424 1.125 0 1.688 0.644 1.688 1.931 0 0.401-0.074 0.898-0.222 1.487-0.149 0.507-0.287 1.003-0.415 1.488 1.614-3.27 3.133-4.906 4.555-4.906 0.468 0 0.85 0.164 1.148 0.491s0.446 0.722 0.446 1.186z"></path>
<path d="M150.153 22.631c-0.020 0.253-0.191 0.38-0.509 0.38h-8.41c-0.319 0-0.489-0.127-0.509-0.38-0.022-0.21 0.223-0.379 0.732-0.506 0.87-0.253 1.327-0.391 1.37-0.412 0.701-0.295 1.051-1.434 1.051-3.419v-14.939l-8.219 19.244c-0.189 0.443-0.339 0.664-0.445 0.664s-0.285-0.284-0.541-0.854l-7.072-16.143c-0.382-0.865-0.765-1.593-1.147-2.184l0.192 14.212c0.021 1.013 0.064 1.699 0.128 2.058 0.148 0.695 0.457 1.15 0.924 1.361 0.042 0.021 0.499 0.158 1.369 0.412 0.509 0.127 0.754 0.296 0.733 0.506-0.022 0.253-0.191 0.38-0.511 0.38h-6.816c-0.318 0-0.489-0.127-0.509-0.38-0.022-0.21 0.222-0.379 0.733-0.506 0.87-0.253 1.327-0.391 1.37-0.412 0.466-0.21 0.775-0.686 0.923-1.425 0.085-0.358 0.128-1.023 0.128-1.994l0.159-15.573c-0.34-0.273-0.839-0.548-1.497-0.823-0.467-0.126-0.924-0.263-1.37-0.412-0.51-0.127-0.754-0.295-0.733-0.507 0.020-0.254 0.191-0.379 0.509-0.379h3.822c1.444 0.022 2.272 0.090 2.485 0.206 0.211 0.117 0.531 0.67 0.956 1.662l6.785 15.794 7.327-17.187c0.127-0.317 0.413-0.475 0.859-0.475h5.225c0.319 0 0.489 0.126 0.509 0.379 0.020 0.212-0.223 0.38-0.732 0.507-0.872 0.254-1.327 0.391-1.37 0.412-0.701 0.296-1.052 1.436-1.052 3.419v12.977c0 1.984 0.351 3.123 1.052 3.419 0.042 0.021 0.498 0.158 1.37 0.412 0.509 0.127 0.753 0.296 0.732 0.506z"></path>
<path d="M162.322 16.158c0-1.756-0.288-3.194-0.861-4.316-0.742-1.459-1.901-2.188-3.471-2.188-1.572 0-2.729 0.751-3.471 2.253-0.573 1.121-0.86 2.548-0.86 4.283 0 1.692 0.287 3.099 0.86 4.219 0.764 1.439 1.921 2.158 3.471 2.158 1.571 0 2.729-0.719 3.471-2.158 0.573-1.121 0.861-2.538 0.861-4.252zM165.379 15.968c0 2.157-0.7 3.954-2.102 5.393s-3.186 2.157-5.352 2.157-3.918-0.677-5.254-2.030c-1.34-1.354-2.008-3.119-2.008-5.297 0-2.157 0.701-3.934 2.103-5.33 1.4-1.396 3.186-2.092 5.352-2.092 2.058 0 3.785 0.687 5.176 2.061 1.39 1.374 2.085 3.087 2.085 5.138z"></path>
<path d="M192.87 22.632c-0.022 0.253-0.192 0.379-0.511 0.379h-6.88c-0.319 0-0.489-0.126-0.509-0.379-0.020-0.168 0.223-0.316 0.732-0.443 0.658-0.147 1.12-0.309 1.386-0.488 0.265-0.179 0.398-1.311 0.398-3.395v-4.104c0-1.285-0.159-2.221-0.477-2.811-0.425-0.8-1.243-1.2-2.454-1.2-1.019 0-1.891 0.311-2.611 0.932-0.723 0.621-1.083 1.384-1.083 2.289v4.893c0.020 1.263 0.031 1.957 0.031 2.084 0.044 0.758 0.17 1.2 0.383 1.326 0.211 0.127 0.669 0.274 1.37 0.442 0.509 0.126 0.753 0.284 0.733 0.474-0.022 0.253-0.192 0.379-0.509 0.379h-6.881c-0.319 0-0.489-0.126-0.509-0.379-0.022-0.168 0.223-0.316 0.732-0.443 0.658-0.147 1.119-0.309 1.386-0.488 0.265-0.179 0.398-1.311 0.398-3.395v-4.104c0-1.285-0.159-2.221-0.479-2.811-0.424-0.8-1.242-1.2-2.452-1.2-1.020 0-1.889 0.311-2.611 0.932s-1.083 1.384-1.083 2.289v4.893c0 2.126 0.137 3.263 0.413 3.41 0.148 0.084 0.604 0.221 1.37 0.41 0.509 0.147 0.754 0.316 0.733 0.505-0.023 0.253-0.192 0.379-0.509 0.379h-6.881c-0.319 0-0.489-0.126-0.509-0.38-0.022-0.168 0.233-0.305 0.763-0.412 0.659-0.126 1.116-0.3 1.371-0.522s0.383-1.356 0.383-3.403v-6.045c0-0.57-0.052-0.944-0.16-1.124-0.106-0.179-0.425-0.269-0.956-0.269-0.806 0-1.21-0.126-1.21-0.379 0-0.274 0.253-0.465 0.763-0.57 1.23-0.253 2.44-0.601 3.626-1.045 0.192-0.042 0.319-0.063 0.383-0.063 0.191 0 0.307 0.138 0.351 0.412 0.019 0.19 0.041 0.728 0.063 1.614 0.466-0.602 1.149-1.090 2.052-1.464 0.901-0.374 1.829-0.562 2.783-0.562 2.207 0 3.585 0.813 4.137 2.438 1.272-1.625 3.053-2.438 5.344-2.438 1.74 0 2.938 0.474 3.596 1.422 0.721 1.032 1.080 2.653 1.080 4.863v3.222c0 1.2 0.012 1.895 0.032 2.084 0.044 0.759 0.17 1.2 0.383 1.327s0.669 0.274 1.371 0.442c0.508 0.126 0.753 0.284 0.732 0.474z"></path>
<path d="M195.718 21.203c-0.061-0.024-0.147-0.036-0.26-0.036h-0.109v0.493h0.175c0.104 0 0.184-0.021 0.243-0.063s0.088-0.108 0.088-0.201c0-0.092-0.046-0.157-0.138-0.193zM194.903 22.567v-1.698c0.106 0 0.265 0.001 0.475 0.001 0.212 0.001 0.329 0.002 0.353 0.003 0.134 0.010 0.247 0.039 0.337 0.088 0.152 0.083 0.228 0.218 0.228 0.405 0 0.143-0.040 0.246-0.12 0.309-0.079 0.064-0.179 0.102-0.296 0.114 0.108 0.022 0.188 0.055 0.242 0.098 0.101 0.081 0.151 0.208 0.151 0.381v0.151c0 0.016 0.001 0.033 0.004 0.050s0.006 0.034 0.013 0.050l0.015 0.048h-0.428c-0.014-0.055-0.023-0.132-0.028-0.235-0.004-0.102-0.014-0.172-0.028-0.207-0.022-0.060-0.064-0.101-0.125-0.125-0.033-0.014-0.084-0.023-0.152-0.027l-0.099-0.006h-0.095v0.601h-0.447zM194.673 20.827c-0.246 0.249-0.369 0.545-0.369 0.887 0 0.355 0.125 0.656 0.375 0.904 0.248 0.248 0.548 0.372 0.9 0.372 0.349 0 0.649-0.125 0.897-0.374 0.248-0.251 0.372-0.552 0.372-0.902 0-0.341-0.124-0.637-0.371-0.887-0.25-0.255-0.549-0.382-0.899-0.382-0.355 0-0.657 0.128-0.906 0.382zM196.658 22.814c-0.3 0.288-0.659 0.432-1.079 0.432-0.434 0-0.799-0.147-1.097-0.443-0.297-0.295-0.445-0.658-0.445-1.089 0-0.448 0.161-0.82 0.481-1.116 0.301-0.277 0.655-0.416 1.061-0.416 0.425 0 0.788 0.15 1.089 0.449s0.452 0.66 0.452 1.082c0 0.435-0.154 0.801-0.462 1.099z"></path>
</symbol>
<symbol id="icon-play" viewBox="0 0 32 32">
<path stroke-linejoin="miter" stroke-linecap="butt" stroke-miterlimit="4" stroke-width="2" d="M31 16c0 8.284-6.716 15-15 15s-15-6.716-15-15c0-8.284 6.716-15 15-15s15 6.716 15 15z"></path>
<path d="M21 16l-7.5 4.33v-8.66l7.5 4.33z"></path>
</symbol>
<symbol id="icon-robin" viewBox="0 0 105 32">
<path d="M6.48 31.6h-6.48v-31.6h7.24c1.493 0 2.707 0.080 3.64 0.24 0.96 0.133 1.707 0.427 2.24 0.88s0.893 1.107 1.080 1.96c0.213 0.827 0.32 1.947 0.32 3.36v3.28c0 0.827-0.093 1.507-0.28 2.040s-0.427 0.96-0.72 1.28c-0.267 0.32-0.56 0.56-0.88 0.72-0.32 0.133-0.613 0.227-0.88 0.28v0.16c0.4 0.107 0.76 0.267 1.080 0.48 0.347 0.187 0.64 0.48 0.88 0.88s0.427 0.933 0.56 1.6c0.16 0.64 0.24 1.467 0.24 2.48v11.96h-6.52v-14c0-0.347-0.040-0.573-0.12-0.68-0.080-0.133-0.293-0.2-0.64-0.2h-0.76v14.88zM6.48 11.64h0.76c0.347 0 0.56-0.053 0.64-0.16 0.080-0.133 0.12-0.373 0.12-0.72v-4.32c0-0.347-0.040-0.573-0.12-0.68-0.080-0.133-0.293-0.2-0.64-0.2h-0.76v6.080zM29.702 26.92c0 1.12-0.093 2.013-0.28 2.68-0.16 0.667-0.48 1.187-0.96 1.56-0.453 0.347-1.093 0.573-1.92 0.68-0.8 0.107-1.853 0.16-3.16 0.16-1.28 0-2.333-0.053-3.16-0.16s-1.467-0.333-1.92-0.68c-0.453-0.373-0.773-0.893-0.96-1.56-0.16-0.667-0.24-1.56-0.24-2.68v-14.6c0-1.12 0.080-2.013 0.24-2.68 0.187-0.667 0.507-1.173 0.96-1.52 0.453-0.373 1.093-0.613 1.92-0.72s1.88-0.16 3.16-0.16c1.307 0 2.36 0.053 3.16 0.16 0.827 0.107 1.467 0.347 1.92 0.72 0.48 0.347 0.8 0.853 0.96 1.52 0.187 0.667 0.28 1.56 0.28 2.68v14.6zM22.662 25.8c0 0.347 0.040 0.587 0.12 0.72 0.080 0.107 0.28 0.16 0.6 0.16 0.347 0 0.56-0.053 0.64-0.16 0.080-0.133 0.12-0.373 0.12-0.72v-12.36c0-0.347-0.040-0.573-0.12-0.68-0.080-0.133-0.293-0.2-0.64-0.2-0.32 0-0.52 0.067-0.6 0.2-0.080 0.107-0.12 0.333-0.12 0.68v12.36zM38.298 0v8.72c0.347-0.48 0.773-0.813 1.28-1 0.533-0.187 1.187-0.28 1.96-0.28s1.4 0.093 1.88 0.28c0.48 0.16 0.84 0.427 1.080 0.8 0.267 0.373 0.44 0.88 0.52 1.52 0.107 0.613 0.16 1.373 0.16 2.28v14.6c0 0.933-0.053 1.72-0.16 2.36-0.080 0.613-0.253 1.107-0.52 1.48s-0.653 0.64-1.16 0.8c-0.507 0.16-1.16 0.24-1.96 0.24-0.907 0-1.64-0.093-2.2-0.28-0.56-0.213-0.987-0.547-1.28-1v1.080h-5.32v-31.6h5.72zM39.618 13.44c0-0.32-0.040-0.547-0.12-0.68-0.053-0.133-0.227-0.2-0.52-0.2-0.267 0-0.467 0.053-0.6 0.16-0.107 0.080-0.187 0.213-0.24 0.4v13c0.053 0.187 0.133 0.333 0.24 0.44 0.133 0.080 0.333 0.12 0.6 0.12 0.293 0 0.467-0.067 0.52-0.2 0.080-0.133 0.12-0.36 0.12-0.68v-12.36zM53.807 4.16h-5.68v-4.16h5.68v4.16zM53.807 31.6h-5.68v-23.96h5.68v23.96zM70.071 31.6h-5.76v-18.16c0-0.32-0.040-0.547-0.12-0.68-0.054-0.133-0.227-0.2-0.52-0.2-0.267 0-0.467 0.053-0.6 0.16-0.107 0.080-0.2 0.213-0.28 0.4v18.48h-5.72v-23.96h5.32v1.080c0.293-0.453 0.72-0.773 1.28-0.96 0.56-0.213 1.293-0.32 2.2-0.32 0.8 0 1.466 0.080 2 0.24 0.56 0.16 1 0.427 1.32 0.8s0.546 0.88 0.68 1.52c0.133 0.613 0.2 1.387 0.2 2.32v19.28zM78.925 31.6h-5.8v-5.64h5.8v5.64zM104.573 0l-3.28 31.6h-8.16l-1.080-22.92h-0.16l-1.32 22.92h-8.28l-2.44-31.6h6.52l0.68 22.16h0.16l0.96-22.16h8l0.68 22.16h0.16l1-22.16h6.56z"></path>
</symbol>
<symbol id="icon-tvit" viewBox="0 0 40 32">
<path d="M40 3.744c-1.379 0.591-2.956 0.985-4.729 1.182 1.576-0.985 2.956-2.562 3.547-4.335-1.576 0.985-3.35 1.576-5.123 1.97-1.379-1.576-3.547-2.562-5.911-2.562-4.532 0-8.079 3.547-8.079 7.882 0 0.591 0 1.182 0.197 1.773-6.7-0.394-12.611-3.547-16.749-8.276-0.788 1.182-1.182 2.562-1.182 3.941 0 2.759 1.379 5.123 3.547 6.699-1.379 0-2.562-0.394-3.744-0.985 0 0 0 0 0 0.197 0 3.941 2.759 7.094 6.502 7.882-0.591 0.197-1.379 0.197-2.167 0.197-0.591 0-0.985 0-1.576-0.197 0.985 3.153 3.941 5.517 7.488 5.517-2.759 2.167-6.305 3.35-10.049 3.35-0.591 0-1.379-0-1.97-0.197 3.547 2.365 7.882 3.547 12.414 3.547 14.778 0 23.054-12.217 23.054-22.66 0-0.394 0-0.788 0-0.985 2.167-0.985 3.547-2.365 4.532-3.941z"></path>
</symbol>
<symbol id="icon-photo" viewBox="0 0 38 32">
<path d="M35.351 6.205h-3.47l-0.797-3.596c-0.34-1.536-1.679-2.609-3.255-2.609h-12.047c-1.576 0-2.915 1.073-3.255 2.609l-0.797 3.596h-0.823v-1.534c0-0.865-0.705-1.568-1.571-1.568h-5.079c-0.866 0-1.571 0.704-1.571 1.568v1.534h-0.111c-1.42 0-2.575 1.153-2.575 2.57v17.408c0 1.417 1.155 2.57 2.575 2.57h11.94c2.102 1.359 4.605 2.149 7.291 2.149s5.189-0.79 7.291-2.149h6.255c1.42 0 2.575-1.153 2.575-2.57v-17.408c0-1.417-1.155-2.57-2.575-2.57zM13.974 2.929c0.189-0.853 0.933-1.45 1.809-1.45h12.047c0.876 0 1.619 0.596 1.809 1.45l0.726 3.277h-1.268c-2.102-1.359-4.605-2.149-7.291-2.149s-5.189 0.79-7.291 2.149h-1.268l0.726-3.277zM4.167 4.671c0-0.049 0.040-0.089 0.089-0.089h5.079c0.049 0 0.089 0.040 0.089 0.089v1.534h-5.258v-1.534zM5.949 27.274v-8.032c0-0.408-0.332-0.739-0.741-0.739s-0.741 0.331-0.741 0.739v8.032h-1.892c-0.603 0-1.093-0.49-1.093-1.091v-17.408c0-0.602 0.49-1.091 1.093-1.091h10.047c-2.622 2.451-4.263 5.935-4.263 9.795s1.641 7.344 4.263 9.795h-6.673zM28.645 27.274c-0.883 0.616-1.853 1.116-2.887 1.479-1.238 0.434-2.568 0.67-3.952 0.67s-2.715-0.237-3.952-0.67c-1.034-0.362-2.004-0.863-2.887-1.479-3.096-2.161-5.126-5.746-5.126-9.795s2.030-7.634 5.126-9.795c0.883-0.616 1.853-1.117 2.887-1.479 1.238-0.434 2.568-0.67 3.952-0.67s2.714 0.237 3.952 0.67c1.034 0.362 2.004 0.863 2.887 1.479 3.096 2.161 5.126 5.746 5.126 9.795s-2.029 7.634-5.126 9.795zM36.444 26.183c0 0.602-0.49 1.091-1.093 1.091h-4.362c2.622-2.451 4.263-5.935 4.263-9.795s-1.641-7.344-4.263-9.795h4.362c0.603 0 1.093 0.49 1.093 1.091v17.407z"></path>
<path d="M21.772 8.428c-5.035 0-9.13 4.096-9.13 9.13s4.096 9.13 9.13 9.13c0.733 0 1.464-0.087 2.17-0.26 0.373-0.091 0.602-0.467 0.511-0.84s-0.467-0.602-0.84-0.511c-0.599 0.146-1.218 0.22-1.841 0.22-4.268 0-7.739-3.472-7.739-7.739s3.472-7.739 7.739-7.739c4.268 0 7.739 3.472 7.739 7.739 0 1.555-0.459 3.055-1.328 4.337-0.215 0.318-0.133 0.75 0.185 0.966s0.75 0.133 0.966-0.185c1.026-1.513 1.568-3.283 1.568-5.117 0-5.035-4.096-9.13-9.13-9.13z"></path>
<path d="M5.619 9.833c-1.549 0-2.809 1.26-2.809 2.809s1.26 2.809 2.809 2.809 2.809-1.26 2.809-2.809c0-1.549-1.26-2.809-2.809-2.809zM5.619 13.943c-0.717 0-1.3-0.583-1.3-1.3s0.583-1.3 1.3-1.3 1.3 0.583 1.3 1.3c0 0.717-0.583 1.3-1.3 1.3z"></path>
<path d="M28.080 24.444c-0.009-0.044-0.023-0.088-0.040-0.131s-0.039-0.083-0.065-0.121c-0.025-0.039-0.055-0.074-0.087-0.107s-0.069-0.062-0.107-0.088c-0.039-0.025-0.079-0.047-0.122-0.065s-0.086-0.031-0.131-0.040c-0.091-0.018-0.184-0.018-0.275 0-0.045 0.009-0.089 0.023-0.131 0.040s-0.083 0.039-0.121 0.065c-0.038 0.026-0.074 0.055-0.107 0.088s-0.062 0.068-0.087 0.107c-0.025 0.038-0.047 0.079-0.065 0.121s-0.031 0.087-0.040 0.131c-0.009 0.046-0.014 0.092-0.014 0.138s0.005 0.092 0.014 0.137c0.009 0.045 0.023 0.089 0.040 0.131s0.039 0.084 0.065 0.121c0.025 0.039 0.055 0.074 0.087 0.107s0.069 0.062 0.107 0.087c0.039 0.025 0.079 0.047 0.121 0.065s0.086 0.031 0.131 0.040c0.046 0.009 0.091 0.014 0.137 0.014s0.092-0.005 0.138-0.014c0.045-0.009 0.089-0.022 0.131-0.040s0.083-0.039 0.122-0.065c0.038-0.025 0.074-0.055 0.107-0.087 0.131-0.131 0.205-0.312 0.205-0.496 0-0.046-0.004-0.092-0.013-0.138z"></path>
</symbol>
</defs>
</svg>
